<?xml version="1.0" standalone="no"?>
<!DOCTYPE svg PUBLIC "-//W3C//DTD SVG 20010904//EN"
 "http://www.w3.org/TR/2001/REC-SVG-20010904/DTD/svg10.dtd">
<svg version="1.0" xmlns="http://www.w3.org/2000/svg"
 width="371.000000pt" height="371.000000pt" viewBox="0 0 371.000000 371.000000"
 preserveAspectRatio="xMidYMid meet">
<metadata>
Created by potrace 1.14, written by Peter Selinger 2001-2017
</metadata>
<g transform="translate(0.000000,371.000000) scale(0.100000,-0.100000)"
fill="#000000" stroke="none">
<path d="M1726 3658 c-11 -15 -16 -18 -16 -8 0 13 -2 13 -10 0 -8 -13 -10 -12
-10 4 0 19 0 19 -13 1 -15 -19 -42 -12 -31 8 3 7 0 5 -8 -4 -8 -9 -24 -14 -40
-12 -14 2 -29 -1 -33 -6 -3 -6 -12 -8 -20 -4 -9 3 -15 -1 -15 -11 0 -9 -5 -16
-11 -16 -5 0 -7 6 -3 13 4 6 4 9 -1 5 -4 -4 -14 -3 -22 4 -11 9 -13 8 -11 -3
2 -10 -5 -13 -26 -11 -18 3 -26 0 -22 -7 4 -6 1 -11 -7 -11 -8 0 -18 -7 -21
-15 -4 -12 -10 -14 -25 -5 -14 7 -22 7 -27 -1 -5 -9 -10 -7 -19 4 -10 14 -13
13 -25 -6 -12 -21 -12 -21 6 -7 18 14 18 14 5 -3 -8 -10 -20 -16 -26 -13 -7 2
-18 -1 -25 -7 -10 -9 -11 -7 -6 13 l6 25 -12 -25 c-16 -33 -14 -31 -30 -34 -7
-1 -19 -6 -27 -10 -9 -6 -12 -5 -8 1 4 6 0 13 -8 16 -9 4 -12 1 -8 -9 3 -9 0
-14 -8 -12 -7 2 -13 -6 -14 -16 0 -11 -7 -21 -15 -23 -12 -4 -12 -3 -1 5 8 6
9 12 3 16 -5 3 -17 -5 -26 -19 -12 -19 -23 -24 -41 -21 -14 3 -28 0 -31 -6 -4
-7 -2 -8 4 -4 7 4 12 2 12 -4 0 -6 -9 -10 -19 -8 -11 2 -30 -7 -43 -19 -12
-12 -27 -23 -33 -23 -5 -1 -9 -7 -7 -12 2 -6 -4 -8 -12 -5 -10 4 -13 1 -9 -8
3 -8 10 -12 16 -8 6 3 7 1 3 -6 -5 -8 -12 -9 -20 -2 -14 12 -29 3 -45 -27 -8
-15 -18 -21 -27 -18 -8 3 -13 2 -10 -3 8 -12 -33 -63 -45 -56 -5 4 -9 -2 -9
-12 0 -15 -2 -16 -11 -3 -9 12 -10 11 -6 -7 3 -12 2 -22 -2 -21 -21 2 -32 -4
-28 -16 4 -11 1 -13 -11 -9 -9 3 -14 3 -10 -2 4 -4 0 -14 -9 -20 -15 -11 -15
-15 -4 -29 16 -20 8 -21 -11 -2 -12 11 -17 9 -31 -16 -9 -16 -12 -26 -7 -23 6
3 10 -3 10 -15 0 -19 -1 -20 -16 -6 -18 18 -28 21 -19 6 4 -6 1 -18 -7 -27
-11 -14 -11 -16 1 -8 9 5 12 4 7 -3 -3 -5 -2 -12 3 -14 5 -1 2 -10 -7 -18 -14
-13 -15 -12 -9 2 4 12 1 16 -13 15 -11 -1 -16 -5 -11 -10 5 -5 6 -17 4 -28 -4
-14 -11 -18 -27 -14 -11 2 -15 2 -8 -1 6 -3 12 -10 12 -15 0 -6 -4 -7 -10 -4
-6 3 -7 -1 -4 -9 4 -9 1 -16 -6 -16 -10 0 -10 -3 0 -15 10 -12 8 -14 -7 -11
-11 3 -25 -4 -32 -16 -10 -16 -10 -18 0 -12 9 5 10 2 6 -10 -4 -10 -7 -20 -7
-22 0 -3 -4 -2 -10 1 -17 11 -11 -7 7 -21 16 -12 15 -12 -7 -7 -21 6 -23 4
-13 -8 10 -12 9 -20 -2 -36 -8 -11 -11 -23 -7 -27 3 -4 -1 -4 -11 0 -10 3 -17
1 -17 -5 0 -6 5 -11 10 -11 6 0 5 -6 -2 -14 -7 -8 -16 -12 -20 -10 -3 2 -4 -4
-1 -15 3 -10 0 -22 -6 -25 -5 -4 -8 -13 -4 -21 3 -9 -1 -15 -8 -15 -12 0 -12
-2 -1 -9 11 -7 11 -11 -2 -23 -10 -10 -11 -19 -4 -26 6 -6 6 -12 -3 -17 -8 -6
-10 -4 -4 5 5 9 4 11 -4 6 -9 -6 -9 -11 1 -24 11 -13 11 -14 -1 -7 -11 6 -13
4 -8 -8 4 -12 1 -17 -10 -17 -14 0 -14 -2 3 -15 19 -14 19 -14 -1 -15 -12 -1
-15 -4 -7 -7 10 -4 9 -9 -5 -20 -10 -8 -12 -12 -5 -8 18 9 15 -6 -6 -22 -9 -8
-11 -12 -4 -8 14 7 17 -11 3 -19 -10 -7 -9 -25 2 -43 4 -7 0 -16 -10 -22 -10
-6 -14 -11 -9 -11 5 0 2 -8 -5 -17 -10 -11 -10 -14 -1 -9 6 4 12 3 12 -3 0 -5
-5 -13 -10 -16 -8 -5 -7 -12 2 -23 10 -12 10 -14 1 -8 -7 4 -13 2 -13 -3 0 -6
5 -11 12 -11 6 0 3 -7 -8 -16 -10 -8 -14 -13 -8 -10 7 3 14 -1 17 -9 4 -10 1
-12 -11 -8 -15 6 -15 5 -3 -10 11 -14 11 -18 -3 -23 -13 -5 -13 -9 7 -26 12
-11 16 -17 10 -13 -8 4 -13 0 -13 -9 0 -9 5 -16 12 -16 6 0 3 -6 -8 -14 -23
-17 -21 -7 -23 -157 -1 -92 -4 -119 -14 -114 -6 4 -4 0 5 -7 15 -13 15 -15 0
-26 -9 -7 -12 -10 -5 -7 14 6 26 -11 31 -42 1 -14 -3 -23 -10 -23 -9 0 -9 -3
2 -10 13 -9 13 -10 0 -10 -12 0 -12 -2 -1 -9 9 -6 10 -11 2 -15 -14 -9 -14
-26 0 -26 5 0 7 5 3 12 -4 7 -3 8 5 4 9 -6 9 -11 0 -23 -13 -15 -20 -53 -10
-50 3 1 8 -2 9 -8 2 -5 8 -15 13 -22 7 -7 6 -14 -2 -19 -8 -5 -9 -3 -4 6 6 9
4 11 -5 5 -10 -6 -6 -14 16 -32 16 -13 21 -21 12 -17 -10 3 -18 1 -18 -5 0 -6
4 -11 9 -11 5 0 8 -15 6 -32 -4 -26 -2 -30 6 -18 9 12 10 11 6 -7 -3 -12 1
-30 9 -41 7 -11 10 -22 7 -26 -11 -10 -12 -37 -2 -30 5 3 6 11 2 17 -5 9 -2 8
8 0 16 -13 19 -47 6 -59 -10 -11 -8 -24 4 -24 5 0 7 5 3 12 -4 7 -3 8 5 4 9
-6 9 -11 0 -22 -11 -14 -2 -19 24 -15 5 1 5 -8 2 -20 -6 -16 -4 -20 6 -13 12
6 12 5 0 -9 -10 -13 -10 -17 -1 -17 10 0 9 -4 -1 -17 -10 -14 -8 -13 10 2 14
11 21 14 17 8 -4 -7 -2 -13 3 -13 6 0 11 -5 11 -11 0 -5 -6 -7 -12 -4 -7 4 -4
-1 7 -11 20 -16 20 -16 -4 -11 l-23 6 19 -22 c29 -32 40 -52 22 -42 -11 7 -12
6 -2 -7 7 -8 9 -19 5 -23 -4 -5 -1 -4 7 0 11 6 13 4 8 -8 -3 -9 -1 -19 5 -23
7 -5 8 -2 3 6 -6 9 -4 11 4 6 7 -5 10 -11 7 -14 -3 -3 2 -14 11 -25 10 -11 12
-17 6 -13 -19 11 -16 -5 4 -21 10 -8 12 -12 6 -8 -9 4 -11 1 -7 -9 3 -9 10
-13 15 -10 5 3 9 -5 9 -18 0 -19 -2 -20 -11 -8 -9 13 -10 13 -6 0 2 -8 13 -15
24 -14 18 1 20 -2 12 -28 -7 -25 -6 -28 6 -18 12 10 15 9 15 -4 0 -11 4 -14
13 -10 7 5 6 0 -3 -11 -12 -15 -12 -17 -1 -10 11 6 13 4 8 -8 -4 -11 -2 -14 9
-10 8 3 14 2 12 -3 -2 -5 1 -10 6 -11 16 -3 26 -27 19 -48 -5 -16 -3 -18 9 -8
11 10 19 7 40 -17 16 -19 21 -30 13 -30 -8 0 -17 9 -20 20 -4 11 -11 18 -16
15 -5 -4 -2 -13 6 -21 8 -9 13 -20 10 -25 -4 -5 1 -6 9 -3 9 4 18 -1 22 -10 3
-9 11 -13 16 -10 6 4 8 -2 3 -17 -5 -18 -4 -20 4 -9 9 12 11 12 17 -3 3 -9 11
-14 18 -10 6 4 4 -2 -4 -12 -9 -11 -10 -16 -2 -11 6 4 12 3 12 -3 0 -5 9 -13
20 -16 11 -4 17 -11 14 -17 -5 -8 -1 -9 11 -4 15 5 16 4 6 -8 -11 -13 -9 -15
9 -11 16 3 20 0 16 -11 -3 -8 -2 -13 3 -10 10 7 33 -18 26 -27 -3 -4 -2 -5 2
-2 3 3 12 -3 20 -13 8 -9 12 -12 9 -6 -3 6 4 10 16 9 12 -1 22 -9 24 -20 3
-21 24 -36 39 -27 5 3 4 -2 -4 -11 -12 -15 -12 -17 4 -11 14 6 16 4 10 -6 -5
-8 -4 -11 2 -7 6 4 21 -3 34 -14 13 -11 31 -18 41 -16 11 3 18 0 18 -9 0 -8 6
-13 13 -11 6 1 11 -3 10 -9 -1 -6 10 -9 28 -6 18 3 29 0 29 -7 0 -7 -6 -9 -12
-5 -7 4 -6 -1 3 -11 14 -14 20 -15 39 -5 12 7 20 8 16 2 -3 -5 1 -13 10 -16 8
-3 13 -10 10 -15 -3 -4 7 -7 22 -5 14 1 33 -3 41 -9 12 -10 14 -9 8 7 -6 15
-5 17 6 8 8 -7 18 -8 22 -4 5 4 5 -2 1 -13 -4 -11 -4 -16 0 -12 4 4 13 2 21
-4 7 -6 13 -8 13 -3 0 5 5 2 11 -6 8 -12 9 -9 4 10 -7 25 -7 25 9 4 11 -16 22
-20 42 -16 21 4 25 2 19 -9 -5 -8 -5 -11 0 -7 4 4 17 3 29 -3 19 -9 19 -9 4 4
-29 23 -20 28 13 8 17 -10 39 -16 50 -14 10 3 19 0 19 -6 0 -6 5 -11 11 -11 5
0 8 4 4 9 -3 5 -1 13 5 16 6 4 9 1 8 -6 -3 -15 22 -19 39 -7 6 5 14 5 18 -2 3
-5 11 -10 16 -10 6 0 7 5 3 12 -5 7 -3 8 7 2 21 -13 42 -14 55 -3 8 7 15 6 20
-2 5 -8 3 -9 -6 -4 -8 5 -11 4 -7 -2 8 -13 57 -4 57 10 0 6 6 3 13 -8 11 -14
16 -15 22 -5 6 9 4 11 -5 5 -8 -5 -11 -4 -6 3 4 6 13 9 21 6 8 -4 13 -9 11
-13 -3 -4 9 -6 26 -5 17 1 34 7 38 14 5 8 9 6 14 -7 7 -17 8 -17 22 1 8 11 14
14 14 8 0 -7 5 -12 11 -12 6 0 9 7 6 14 -4 10 -1 13 8 9 8 -3 12 -10 8 -17 -4
-6 1 -5 10 3 9 7 14 18 11 23 -4 6 3 5 15 -1 11 -7 21 -17 21 -24 0 -8 3 -8 9
2 5 8 14 10 22 5 10 -6 10 -3 -1 11 -12 15 -12 17 -1 10 22 -13 62 -15 54 -2
-4 7 0 8 11 4 13 -5 17 -3 13 7 -4 10 -1 13 8 9 8 -3 12 -10 8 -17 -3 -6 2 -3
13 6 16 14 23 15 33 5 10 -9 11 -8 5 6 -5 13 -2 16 12 10 11 -4 15 -3 11 4 -4
6 2 13 14 16 16 4 18 3 8 -9 -15 -18 0 -18 25 1 10 8 24 12 30 9 6 -3 2 2 -8
10 -23 18 -14 21 16 5 16 -9 19 -8 13 2 -6 9 -3 10 10 5 15 -5 16 -4 5 9 -11
13 -11 16 1 13 8 -2 13 2 12 9 -2 7 6 10 21 7 15 -2 29 4 42 19 l19 22 -22
-18 c-14 -12 -23 -15 -28 -8 -6 11 -5 12 14 15 5 0 13 4 17 8 4 4 14 2 22 -5
13 -10 15 -8 9 13 -6 24 -6 24 10 5 15 -20 15 -20 11 1 -4 13 0 21 9 21 8 0
12 -6 9 -14 -3 -8 -1 -11 4 -8 6 3 10 12 10 20 0 8 5 17 12 21 8 5 9 1 5 -12
-6 -15 -3 -14 13 5 11 13 20 19 20 15 0 -5 5 -2 10 6 7 11 10 11 10 2 0 -7 5
-10 10 -7 6 4 8 10 5 15 -3 4 2 10 10 14 8 3 17 1 20 -5 4 -5 11 -7 16 -3 5 3
16 0 24 -6 8 -6 19 -9 25 -5 5 3 10 1 10 -4 0 -6 -8 -11 -17 -11 -17 -1 -17
-1 -1 -11 10 -5 15 -16 12 -24 -4 -8 2 -23 13 -33 10 -9 13 -13 6 -8 -10 6
-12 4 -7 -8 3 -9 14 -16 23 -16 9 0 25 -11 35 -25 14 -19 22 -22 32 -15 15 13
29 -4 18 -22 -4 -7 -3 -8 4 -4 7 4 12 15 12 24 0 14 2 15 10 2 5 -9 5 -19 -1
-26 -7 -8 -6 -14 1 -19 6 -4 9 -1 8 7 -2 8 9 14 30 16 18 2 30 8 27 13 -4 5 3
10 14 10 42 3 46 5 45 22 -1 9 1 15 5 13 3 -2 15 3 26 11 20 16 20 16 0 9 -18
-5 -18 -4 3 13 22 19 31 38 13 26 -5 -3 -13 0 -17 6 -4 8 -3 9 4 5 7 -4 12 -2
12 4 0 6 5 8 10 5 6 -3 10 3 10 15 0 14 4 19 13 14 8 -5 8 -2 -2 9 -11 14 -11
17 0 17 11 0 11 2 -1 10 -14 9 -6 15 15 10 5 -1 1 8 -10 20 -19 21 -19 21 1
14 17 -7 17 -6 5 9 -12 15 -12 17 2 11 16 -6 18 10 4 34 -5 7 1 25 14 44 13
17 16 28 8 23 -12 -8 -12 -6 0 8 11 14 11 17 0 17 -12 0 -12 2 0 9 7 5 9 11 4
14 -11 7 -10 32 1 59 4 9 4 23 0 30 -6 10 -5 11 7 1 13 -11 15 -9 14 7 -1 11
-4 23 -8 26 -4 4 -7 12 -7 18 0 6 4 4 10 -4 6 -10 9 -1 9 30 0 25 1 55 1 68 0
12 5 22 11 22 5 0 7 5 4 10 -4 6 -11 8 -16 5 -5 -4 -9 -2 -9 3 0 6 7 13 16 16
14 5 14 9 3 22 -10 13 -10 17 2 25 8 5 9 9 3 9 -7 0 -11 11 -10 24 1 16 6 22
15 18 10 -4 12 -1 6 8 -6 10 -4 12 10 6 14 -5 16 -4 7 7 -7 8 -9 17 -5 20 3 4
1 7 -5 7 -7 0 -12 5 -12 11 0 5 5 7 10 4 6 -3 10 -1 10 5 0 6 -7 10 -16 8 -10
-2 -19 3 -22 11 -3 10 0 12 11 8 11 -4 14 -2 10 9 -3 7 -8 14 -12 14 -3 0 -6
15 -6 34 0 18 5 32 10 30 12 -5 13 66 1 84 -4 7 -1 12 8 12 9 0 16 5 16 11 0
5 -4 7 -10 4 -5 -3 -10 -1 -10 5 0 6 -5 8 -12 4 -7 -4 -8 -3 -4 5 4 6 13 8 19
4 7 -4 5 2 -3 12 -14 17 -13 18 2 12 15 -5 16 -4 5 13 -9 16 -9 24 1 40 6 11
12 23 12 27 0 5 -4 2 -9 -5 -6 -10 -10 -7 -13 12 -3 15 -1 29 5 33 6 3 7 1 3
-5 -4 -7 -2 -12 3 -12 12 0 14 13 4 24 -12 12 -12 40 0 55 9 12 9 13 0 7 -9
-5 -13 1 -13 19 0 14 4 24 9 21 11 -7 8 21 -4 31 -4 4 -5 2 0 -6 5 -9 4 -12
-3 -7 -6 4 -8 14 -5 23 5 12 3 14 -7 8 -9 -5 -11 -4 -6 4 4 6 11 9 16 6 4 -3
11 2 14 11 3 8 2 12 -4 9 -6 -3 -10 -1 -10 5 0 6 -5 8 -12 4 -10 -6 -10 -5 -1
8 7 8 10 18 6 22 -4 4 1 4 11 0 16 -6 17 -5 5 14 -7 11 -18 18 -24 15 -5 -4 1
6 15 22 14 16 19 25 12 21 -9 -6 -11 -1 -8 18 3 15 1 24 -5 21 -5 -4 -9 -3
-10 2 0 4 -2 16 -4 26 -2 10 3 17 13 18 14 0 13 2 -3 9 -13 6 -15 9 -5 9 13 1
13 2 0 11 -10 6 -11 10 -2 10 6 0 12 5 12 11 0 5 -4 8 -9 5 -5 -3 -11 1 -14 8
-3 8 -1 17 6 19 8 3 5 7 -6 12 -17 7 -17 8 0 21 17 13 17 14 1 8 -12 -4 -18
-1 -18 10 0 9 5 16 12 16 6 0 9 3 6 6 -4 3 -16 1 -27 -6 -12 -6 -21 -7 -20 -3
4 21 -3 33 -22 44 -13 7 -19 7 -15 1 3 -6 -7 -4 -24 4 -16 9 -30 19 -30 23 0
4 -16 7 -36 6 -30 -1 -33 1 -19 11 10 8 12 14 6 19 -6 3 -11 1 -11 -4 0 -6 -9
-11 -20 -11 -11 0 -20 4 -20 9 0 10 -19 9 -37 -2 -6 -4 -15 -2 -19 4 -4 7 -3
9 3 6 5 -3 10 0 10 8 0 16 -32 3 -41 -17 -3 -7 -4 -4 -1 7 4 15 0 21 -15 22
-11 1 -20 -3 -20 -8 0 -6 5 -7 12 -3 6 4 8 3 5 -3 -9 -14 -50 -9 -55 8 -3 11
-1 11 8 -1 10 -13 11 -13 8 0 -3 10 -18 14 -56 13 -36 -1 -50 2 -46 9 5 7 2 8
-7 2 -24 -14 -51 -16 -43 -2 6 10 4 11 -7 1 -7 -7 -17 -13 -22 -13 -4 0 -5 6
-1 13 4 6 -3 3 -16 -8 -13 -11 -20 -14 -15 -6 6 11 3 13 -13 9 -12 -4 -20 -2
-16 3 3 5 0 9 -5 9 -6 0 -11 -5 -11 -11 0 -8 -6 -7 -17 2 -11 10 -14 10 -9 2
4 -7 2 -13 -3 -13 -6 0 -11 6 -11 13 0 8 -3 8 -8 2 -8 -12 -22 -13 -37 -3 -6
4 -17 3 -25 -2 -9 -5 -19 -5 -27 2 -8 6 -16 8 -20 4 -3 -3 0 -7 8 -7 8 -1 1
-4 -16 -8 -17 -4 -29 -13 -27 -20 1 -7 -2 -10 -8 -6 -6 3 -7 12 -3 18 4 8 1 7
-9 -1 -13 -10 -18 -10 -24 -1 -5 8 -3 9 6 4 9 -5 11 -4 6 4 -4 6 -12 9 -17 5
-5 -3 -7 -9 -4 -14 3 -4 -2 -10 -10 -13 -10 -4 -12 -1 -8 11 6 15 5 15 -10 3
-10 -8 -20 -11 -24 -8 -3 4 -15 2 -26 -4 -14 -8 -18 -8 -12 0 4 8 -1 10 -17 7
-52 -12 -102 -10 -94 3 3 5 -2 12 -11 15 -17 7 -36 -12 -27 -26 3 -4 -3 -5
-13 -1 -16 6 -16 5 -4 -10 12 -15 12 -17 -3 -11 -12 5 -15 2 -10 -12 5 -15 4
-16 -4 -5 -11 15 -55 24 -46 9 3 -4 0 -8 -5 -8 -6 0 -11 5 -11 12 0 6 -9 3
-20 -7 -20 -18 -21 -18 -14 1 5 16 4 15 -10 -3 -18 -24 -42 -32 -31 -10 4 6
-2 1 -13 -12 -13 -16 -21 -20 -26 -12 -10 16 -26 4 -26 -20 0 -10 -5 -19 -11
-19 -7 0 -18 -8 -26 -17 -8 -10 -11 -12 -7 -4 5 9 3 12 -4 7 -7 -4 -12 -15
-12 -25 0 -10 -8 -25 -17 -32 -14 -12 -16 -12 -9 1 4 8 0 6 -8 -4 -13 -16 -13
-22 -3 -35 10 -12 9 -14 -6 -8 -11 4 -16 3 -12 -4 4 -5 2 -15 -3 -22 -5 -7 -8
-19 -7 -27 2 -8 5 -27 8 -43 3 -15 2 -25 -3 -22 -5 3 -11 1 -15 -5 -3 -5 2
-10 12 -10 17 -1 17 -1 1 -11 -10 -5 -18 -15 -18 -21 0 -9 3 -9 12 0 7 7 16
12 21 12 5 0 1 -7 -7 -16 -12 -11 -13 -20 -6 -34 7 -13 6 -20 -3 -23 -7 -3 -5
-6 5 -6 10 -1 15 -7 12 -14 -2 -7 2 -29 11 -48 9 -19 14 -24 12 -12 l-5 22 29
-21 c24 -18 31 -38 13 -38 -3 0 -2 4 1 10 3 5 1 10 -4 10 -6 0 -11 -8 -11 -18
0 -20 18 -42 34 -42 5 0 1 7 -10 16 -18 15 -18 15 3 4 27 -13 36 -27 23 -35
-16 -10 -1 -25 17 -18 12 5 15 2 10 -10 -3 -9 -1 -19 5 -23 7 -4 8 -3 4 4 -4
7 -2 12 3 12 10 0 15 -14 12 -33 -1 -5 3 -6 9 -2 6 3 8 11 5 16 -3 5 1 6 10 3
8 -4 14 -14 13 -23 -2 -13 5 -16 40 -15 23 1 42 -3 42 -8 0 -5 -4 -7 -9 -3 -5
3 -12 1 -15 -4 -7 -11 13 -9 32 2 12 8 13 7 16 -12 2 -15 16 -26 16 -13 0 7 9
12 21 12 11 0 17 -4 14 -10 -3 -6 1 -7 9 -4 9 3 13 10 10 15 -3 5 2 6 10 3 9
-3 13 -11 9 -18 -4 -6 1 -5 10 3 13 11 17 11 17 1 0 -8 3 -10 7 -7 3 4 12 2
20 -4 7 -6 13 -8 13 -3 0 10 72 10 89 0 6 -4 11 -2 11 5 0 7 7 4 15 -7 15 -19
15 -19 8 1 -6 18 -5 18 10 6 9 -7 17 -10 17 -5 0 5 4 5 8 -1 4 -5 14 -16 23
-23 14 -10 17 -10 15 0 0 7 4 13 9 13 6 0 9 -4 7 -9 -5 -16 28 -57 41 -50 7 4
4 -2 -6 -13 -17 -19 -17 -21 5 -35 17 -11 19 -16 8 -23 -9 -6 -11 -4 -5 6 7
12 5 12 -6 1 -9 -8 -10 -15 -4 -20 15 -10 13 -31 -4 -41 -8 -5 -12 -18 -9 -29
4 -16 2 -19 -10 -15 -10 4 -13 2 -8 -5 4 -7 2 -12 -4 -12 -6 0 -8 -4 -5 -10 3
-5 -1 -10 -9 -10 -20 0 -29 -17 -15 -26 8 -4 9 -3 5 4 -5 8 -2 10 9 6 9 -4 15
-7 13 -8 -2 -1 -14 -10 -27 -21 -14 -11 -21 -14 -17 -8 5 9 2 11 -8 7 -9 -3
-14 -9 -12 -13 2 -3 -2 -19 -10 -36 -12 -26 -13 -27 -9 -5 3 14 2 19 -1 12 -5
-10 -9 -10 -22 0 -10 8 -13 9 -9 1 4 -6 3 -14 -3 -18 -5 -3 -10 -15 -10 -26 0
-11 4 -17 10 -14 6 3 7 -1 4 -10 -6 -14 -8 -14 -18 1 -11 15 -14 14 -32 -9
-17 -20 -24 -23 -40 -14 -18 10 -18 9 -4 -8 10 -13 11 -16 2 -11 -24 14 -70
13 -65 -1 3 -8 0 -13 -8 -11 -9 2 -13 -4 -11 -14 2 -12 -2 -16 -13 -12 -8 3
-13 10 -10 14 6 10 -36 0 -52 -12 -7 -6 -14 -4 -19 3 -5 8 -3 9 6 4 9 -6 11
-4 5 5 -6 10 -11 9 -22 -5 -7 -11 -13 -13 -13 -7 0 7 -5 12 -11 12 -5 0 -8 -4
-5 -8 3 -5 -1 -9 -9 -9 -8 0 -12 3 -10 7 5 9 -88 6 -102 -3 -6 -4 -15 -2 -19
4 -5 8 -3 9 7 4 12 -8 12 -6 0 8 -15 18 -26 23 -16 7 3 -5 1 -10 -5 -10 -6 0
-8 -5 -4 -11 4 -8 0 -8 -15 0 -24 13 -28 23 -6 15 8 -4 15 -4 15 -1 0 3 -7 8
-15 11 -10 4 -19 -2 -25 -17 l-9 -22 0 23 c-1 13 -7 22 -17 22 -8 0 -13 4 -9
9 3 6 -6 8 -20 5 -20 -3 -23 -1 -19 13 5 17 5 17 -6 0 -12 -19 -34 -13 -24 6
3 7 -2 3 -12 -8 -13 -15 -15 -16 -11 -3 3 9 0 19 -9 22 -9 3 -12 10 -9 16 4 6
-1 7 -11 3 -11 -4 -15 -2 -11 4 4 6 0 14 -9 17 -21 8 -26 8 -20 -2 3 -5 -1 -9
-9 -9 -8 0 -12 4 -9 8 5 8 -15 24 -31 24 -5 0 -10 7 -11 15 -2 35 -5 40 -18
40 -20 0 -29 17 -15 26 7 4 9 3 6 -3 -3 -5 1 -10 10 -10 13 0 12 4 -5 17 -12
10 -18 20 -15 24 4 3 -4 6 -17 6 -23 0 -23 0 -4 15 18 13 18 14 -5 8 -21 -5
-23 -3 -19 15 4 12 2 20 -2 17 -5 -3 -14 5 -21 17 -12 22 -11 22 7 8 19 -14
19 -14 0 7 -10 13 -22 21 -26 18 -4 -2 -7 2 -7 10 0 8 4 12 9 9 4 -3 8 -1 8 4
0 6 -7 12 -15 16 -8 3 -15 10 -15 16 0 6 6 8 13 4 6 -4 4 2 -6 13 -9 11 -14
23 -10 28 5 4 -1 5 -11 1 -20 -7 -20 -7 0 15 16 18 17 21 2 18 -9 -2 -16 -2
-16 1 1 3 -4 15 -11 27 -10 20 -9 22 5 16 12 -4 15 -3 10 5 -4 7 -14 12 -22
12 -8 0 -13 4 -9 10 3 5 13 7 23 4 9 -4 4 4 -13 16 -16 12 -22 20 -12 16 9 -3
17 -1 17 4 0 6 -5 10 -11 10 -5 0 -8 4 -4 9 3 5 -2 17 -11 25 -9 9 -11 16 -4
16 7 0 5 6 -4 15 -15 15 -13 37 6 62 9 12 -8 30 -19 19 -4 -3 -1 -6 6 -6 7 0
9 -5 5 -11 -4 -8 -10 -6 -17 7 -7 13 -7 19 2 22 9 3 9 8 -1 20 -11 13 -11 14
2 7 13 -8 13 -7 1 8 -11 14 -11 17 0 17 10 0 11 3 3 8 -7 4 -11 26 -10 49 1
23 -2 39 -7 36 -5 -3 -4 4 2 15 9 17 7 23 -11 37 -19 13 -20 17 -9 24 17 11
24 41 9 41 -6 0 -7 -8 -4 -17 4 -10 3 -14 -1 -9 -13 12 -11 57 2 46 7 -6 11
-2 11 11 0 13 -5 18 -16 14 -11 -4 -10 -1 3 9 16 13 16 14 1 20 -15 6 -15 8
-1 24 20 22 22 33 7 42 -9 6 -9 11 2 20 8 8 12 27 10 48 -3 22 0 37 9 43 11 7
9 9 -6 10 -11 0 -14 3 -7 6 10 4 10 8 0 21 -10 12 -10 14 0 8 7 -4 12 -2 12 4
0 6 5 8 12 4 7 -4 8 -3 4 5 -4 6 -11 9 -15 7 -4 -3 -7 6 -7 18 0 18 5 22 21
19 11 -2 14 -1 8 3 -16 7 -17 34 -2 34 5 0 7 5 4 10 -4 6 -11 8 -16 5 -5 -4
-9 -2 -9 3 0 5 9 12 19 15 13 3 18 12 16 23 -2 11 -4 23 -4 27 -1 5 -6 5 -13
1 -7 -4 -8 -3 -4 4 4 6 12 9 20 6 16 -6 18 25 2 45 -6 8 -6 13 -1 10 6 -3 21
6 34 19 13 14 17 23 9 19 -8 -3 -15 1 -15 9 0 7 4 11 8 9 3 -3 12 2 19 10 11
13 10 14 -6 9 -15 -4 -13 -1 6 16 14 12 20 19 13 16 -6 -4 -15 -2 -18 4 -4 6
-3 10 2 9 23 -4 31 3 26 24 -3 16 -2 18 5 9 7 -11 10 -9 15 7 3 13 1 19 -5 14
-7 -4 -8 -1 -4 6 5 7 14 10 22 7 8 -3 14 -1 14 3 0 5 -6 11 -12 14 -8 3 -3 9
12 15 14 6 21 11 15 12 -5 0 -3 5 5 10 13 9 13 11 0 21 -13 9 -12 10 2 5 20
-6 38 20 30 43 -3 10 1 11 18 6 16 -5 20 -4 15 5 -4 7 -1 10 11 8 14 -2 18 2
16 16 -2 10 1 15 7 12 5 -3 11 2 13 11 2 10 12 18 23 18 11 0 21 6 21 13 3 24
4 24 21 11 15 -12 16 -12 10 3 -4 13 -2 15 10 11 13 -5 15 -2 10 11 -4 10 -3
15 3 11 5 -3 19 -8 31 -10 17 -4 19 -2 8 11 -10 12 -9 13 6 8 14 -6 16 -4 10
7 -7 12 -6 12 7 1 14 -11 19 -10 33 12 14 21 20 24 42 15 21 -8 24 -7 15 4 -9
11 -2 13 39 9 39 -3 49 -1 44 9 -6 8 -4 10 6 4 20 -13 49 -13 49 -1 0 6 5 4
10 -4 5 -8 10 -10 10 -5 0 6 5 3 10 -5 8 -12 10 -12 10 5 0 11 4 16 8 10 4 -5
16 -10 27 -9 11 0 25 -4 32 -8 7 -6 14 -4 19 3 5 8 3 9 -6 4 -9 -6 -11 -4 -6
4 6 9 13 8 29 -6 11 -10 17 -12 13 -5 -11 18 5 15 21 -5 8 -10 12 -12 8 -5 -3
6 -1 12 4 12 6 0 11 -5 11 -12 0 -6 7 -3 15 8 8 10 15 15 14 9 -3 -23 2 -33
19 -40 14 -5 15 -4 5 6 -7 7 -13 17 -13 22 0 5 7 2 15 -7 8 -8 15 -19 15 -25
0 -5 5 -13 12 -17 8 -5 9 -2 4 11 -5 14 -4 16 7 7 8 -7 18 -8 22 -4 5 4 5 2 2
-4 -4 -7 2 -14 14 -17 12 -3 18 -10 15 -16 -4 -5 -1 -13 5 -17 8 -4 9 -3 5 4
-4 7 -1 12 9 12 9 0 13 -4 10 -10 -3 -5 0 -10 7 -10 9 0 9 -3 -2 -10 -13 -8
-12 -10 3 -10 10 0 15 -5 12 -11 -4 -6 -1 -9 7 -7 14 3 18 -2 18 -23 0 -5 -5
-7 -12 -3 -7 4 -8 3 -4 -5 6 -8 12 -9 20 -2 19 16 27 2 14 -23 -10 -19 -9 -19
4 -8 13 10 18 10 24 1 4 -8 3 -9 -4 -5 -7 4 -12 1 -12 -8 0 -9 6 -16 13 -16 8
0 7 -3 -3 -10 -12 -8 -12 -10 3 -16 9 -3 14 -10 11 -15 -3 -5 0 -9 7 -9 10 0
10 -3 1 -12 -13 -13 -16 -29 -4 -27 20 3 43 -2 38 -9 -3 -5 1 -9 9 -9 8 0 12
5 8 10 -3 5 5 2 19 -7 21 -14 27 -14 52 -1 25 14 28 13 22 -1 -5 -14 -4 -15 8
-5 11 9 15 9 19 -1 4 -11 6 -10 6 0 1 7 6 10 12 6 6 -3 15 0 20 7 5 8 9 9 9 3
0 -6 11 -11 25 -11 14 0 22 4 18 10 -4 6 -1 7 8 1 21 -13 38 -14 46 -2 4 7 1
8 -8 3 -12 -8 -12 -6 0 8 14 17 26 24 17 9 -2 -4 -1 -14 5 -22 7 -13 9 -12 9
1 0 9 7 20 16 23 15 6 15 4 3 -10 -13 -16 -12 -16 7 -6 12 6 25 8 29 4 5 -4 5
-2 2 5 -5 8 8 11 48 9 45 -2 53 0 43 11 -6 8 -7 13 -2 12 22 -4 35 2 28 13 -4
7 -3 8 5 4 9 -6 9 -12 -1 -24 -12 -15 -11 -16 5 -3 9 7 17 10 17 6 0 -4 7 -2
15 5 8 7 15 9 15 5 0 -4 6 -2 13 4 8 6 18 7 22 3 5 -4 6 0 3 9 -4 9 -1 16 5
17 7 0 23 4 36 8 19 6 22 4 16 -7 -5 -8 4 -1 19 14 14 16 24 32 21 36 -2 5 5
8 17 7 12 0 23 6 25 14 4 13 3 13 -6 0 -6 -8 -11 -12 -11 -7 0 11 23 51 35 59
6 5 6 8 -2 8 -7 0 -17 -8 -22 -17 -6 -10 -11 -13 -11 -7 0 15 35 45 44 37 4
-4 3 4 -3 17 -5 14 -14 24 -20 23 -6 -2 -8 4 -4 14 4 9 2 14 -3 10 -12 -7 -12
52 -1 71 5 7 3 12 -4 12 -8 0 -7 5 2 17 12 15 12 16 -6 9 -16 -6 -18 -5 -7 5
6 7 12 20 12 28 0 11 -3 12 -8 5 -5 -8 -13 -4 -25 11 -10 15 -13 26 -7 30 6 4
8 11 5 16 -4 5 -1 9 5 9 6 0 -1 11 -15 24 -17 16 -22 27 -15 31 8 5 6 13 -6
26 -9 10 -12 19 -6 19 5 0 8 9 5 21 -4 13 -8 17 -13 9 -5 -8 -9 -7 -14 5 -3 9
-4 21 0 26 3 5 0 9 -7 9 -8 0 -7 5 2 17 10 11 10 14 2 9 -7 -4 -13 -2 -13 3 0
6 6 11 13 11 6 1 1 8 -13 16 -14 8 -17 13 -7 10 11 -3 15 -2 12 4 -3 6 -16 10
-28 10 -16 0 -18 3 -8 9 9 6 10 11 2 15 -6 4 -8 12 -5 18 4 7 2 8 -5 4 -6 -4
-8 -13 -5 -19 4 -7 -3 -2 -15 10 -11 12 -21 28 -21 34 0 8 -5 6 -12 -4 -12
-14 -15 -14 -32 -2 -11 8 -15 15 -10 15 6 0 14 -3 20 -7 5 -5 -1 2 -13 14 -12
13 -28 24 -35 25 -7 2 -17 8 -21 13 -5 6 -7 4 -4 -5 2 -8 9 -15 15 -15 5 0 13
-2 16 -5 3 -4 -5 -6 -18 -6 -12 0 -23 6 -24 13 -1 7 -3 20 -4 28 -1 8 -5 12
-10 9 -4 -3 -17 -7 -29 -9 -17 -3 -19 -2 -9 10 9 11 7 12 -9 8 -15 -4 -21 -1
-21 11 0 10 -5 14 -10 11 -6 -4 -8 -11 -5 -16 10 -15 -2 -10 -16 8 -12 14 -12
16 0 8 10 -5 12 -4 7 4 -6 9 -11 9 -22 0 -10 -8 -14 -8 -15 0 -3 26 -4 30 -13
38 -5 4 -6 3 -2 -4 3 -6 2 -14 -3 -18 -5 -3 -14 3 -20 12 -9 15 -10 15 -11 2
0 -9 -7 -16 -15 -16 -11 0 -12 4 -4 13 8 10 5 11 -13 6 -20 -5 -21 -3 -11 10
10 12 10 14 -5 13 -9 0 -23 -4 -29 -8 -6 -4 -15 -2 -19 4 -5 8 -3 9 7 4 8 -5
11 -4 6 1 -5 5 -17 10 -28 10 -10 1 -25 2 -33 3 -9 1 -12 8 -9 21 3 11 0 21
-6 21 -6 1 -17 2 -23 3 -7 1 -16 -3 -20 -9 -5 -6 -8 -5 -8 3 0 9 -10 11 -34 7
-29 -6 -35 -4 -41 15 -5 16 -10 18 -20 10 -9 -8 -15 -8 -20 0 -9 14 -61 6 -57
-10 2 -8 -4 -11 -18 -7 -11 3 -18 1 -14 -4 3 -5 -4 -9 -15 -9 -12 0 -21 6 -21
13 0 8 -4 7 -10 -3 -6 -10 -10 -11 -10 -2 0 6 -5 12 -11 12 -5 0 -7 -5 -3 -11
4 -7 -1 -7 -16 1 -15 8 -20 8 -16 1 4 -6 2 -11 -3 -11 -6 0 -11 6 -11 13 0 7
-3 8 -8 2 -8 -11 -42 -16 -42 -6 0 3 -13 6 -29 6 -16 1 -27 -3 -25 -7 3 -4 0
-8 -5 -8 -6 0 -11 5 -11 11 0 6 -5 7 -12 2 -17 -10 -87 -11 -116 -1 -15 5 -21
4 -17 -2 3 -6 1 -10 -4 -10 -6 0 -11 4 -11 9 0 4 -22 8 -50 8 -27 0 -48 -3
-45 -7 2 -4 -2 -7 -10 -7 -18 0 -19 9 -3 25 7 7 9 12 6 12 -4 0 -14 -10 -22
-22z m824 -78 c0 -5 -5 -10 -11 -10 -5 0 -7 5 -4 10 3 6 8 10 11 10 2 0 4 -4
4 -10z m-1360 -85 c0 -12 -19 -12 -23 0 -4 9 -1 12 9 8 7 -3 14 -7 14 -8z
m-183 -97 c-15 -11 -25 -24 -21 -29 3 -5 1 -9 -4 -9 -6 0 -13 7 -16 16 -3 8
-2 13 3 10 4 -3 19 6 31 19 13 14 26 22 29 19 3 -3 -6 -15 -22 -26z m-303
-287 c3 -5 -1 -11 -9 -14 -9 -4 -12 -1 -8 9 6 16 10 17 17 5z m1031 -210 c3
-5 2 -12 -3 -15 -5 -3 -9 1 -9 9 0 17 3 19 12 6z m-1267 -276 c-3 -3 -9 2 -12
12 -6 14 -5 15 5 6 7 -7 10 -15 7 -18z m-58 -250 c0 -2 -6 -8 -13 -14 -10 -8
-14 -7 -14 2 0 8 6 14 14 14 7 0 13 -1 13 -2z m1345 -465 c3 -6 -1 -7 -9 -4
-18 7 -21 14 -7 14 6 0 13 -4 16 -10z m185 -484 c0 -2 -7 -7 -16 -10 -8 -3
-12 -2 -9 4 6 10 25 14 25 6z m-590 -150 c0 -2 -7 -7 -16 -10 -8 -3 -12 -2 -9
4 6 10 25 14 25 6z m921 -319 c-10 -9 -11 -8 -5 6 3 10 9 15 12 12 3 -3 0 -11
-7 -18z m-1167 -608 c-2 -4 4 -12 13 -18 10 -6 14 -11 10 -11 -5 0 -20 9 -34
19 -22 18 -22 20 -4 18 11 0 18 -4 15 -8z m226 -123 c0 -6 -5 -4 -10 4 -5 8
-10 11 -10 7 0 -5 -5 -5 -10 -2 -6 4 -8 11 -4 16 7 12 34 -8 34 -25z m100 -22
c0 -8 -5 -12 -10 -9 -6 4 -8 11 -5 16 9 14 15 11 15 -7z m260 -44 c0 -5 -2
-10 -4 -10 -3 0 -8 5 -11 10 -3 6 -1 10 4 10 6 0 11 -4 11 -10z"/>
<path d="M1961 3664 c0 -11 3 -14 6 -6 3 7 2 16 -1 19 -3 4 -6 -2 -5 -13z"/>
<path d="M1211 3553 c-1 -17 16 -25 25 -12 4 7 3 9 -4 5 -5 -3 -13 0 -15 6 -4
9 -6 10 -6 1z"/>
<path d="M820 3270 c-9 -6 -10 -10 -3 -10 6 0 15 5 18 10 8 12 4 12 -15 0z"/>
<path d="M476 2772 c-3 -5 1 -9 9 -9 8 0 12 4 9 9 -3 4 -7 8 -9 8 -2 0 -6 -4
-9 -8z"/>
<path d="M2064 2676 c1 -38 17 -60 29 -40 5 8 12 12 17 9 4 -3 6 5 2 17 -5 21
-4 22 13 8 17 -14 17 -14 5 7 -8 12 -26 23 -40 25 -24 4 -26 1 -26 -26z"/>
<path d="M3365 2248 c3 -11 7 -23 11 -27 4 -3 4 2 1 11 -3 9 -1 18 6 21 6 2 4
6 -5 10 -13 4 -16 1 -13 -15z"/>
<path d="M3332 2255 c4 -4 4 -13 -2 -19 -6 -8 -2 -12 13 -13 12 0 16 1 9 4 -6
3 -10 9 -7 13 3 5 0 12 -7 16 -7 4 -10 4 -6 -1z"/>
<path d="M1690 1811 c0 -6 4 -13 10 -16 6 -3 7 1 4 9 -7 18 -14 21 -14 7z"/>
<path d="M326 1732 c-2 -4 -1 -14 4 -22 7 -11 9 -9 7 8 -1 24 -3 26 -11 14z"/>
<path d="M1275 1551 c-3 -5 -2 -12 3 -15 5 -3 9 1 9 9 0 17 -3 19 -12 6z"/>
<path d="M1323 1355 c0 -8 4 -12 9 -9 5 3 6 10 3 15 -9 13 -12 11 -12 -6z"/>
<path d="M3205 1180 c-3 -6 1 -7 9 -4 18 7 21 14 7 14 -6 0 -13 -4 -16 -10z"/>
<path d="M1504 998 c-4 -7 -3 -10 1 -5 5 4 16 0 25 -8 15 -13 17 -13 17 0 0 8
-3 13 -5 10 -3 -3 -11 0 -18 6 -9 7 -14 6 -20 -3z"/>
<path d="M3200 996 c0 -2 7 -7 16 -10 8 -3 12 -2 9 4 -6 10 -25 14 -25 6z"/>
<path d="M530 949 c0 -5 5 -7 10 -4 6 3 10 8 10 11 0 2 -4 4 -10 4 -5 0 -10
-5 -10 -11z"/>
<path d="M2200 930 c-6 -11 -8 -20 -6 -20 3 0 10 9 16 20 6 11 8 20 6 20 -3 0
-10 -9 -16 -20z"/>
<path d="M3170 685 c-9 -10 -9 -15 -1 -15 6 0 11 5 11 11 0 5 5 7 12 3 7 -4 8
-3 4 4 -9 15 -11 15 -26 -3z"/>
<path d="M3165 650 c-3 -5 -1 -10 4 -10 6 0 11 5 11 10 0 6 -2 10 -4 10 -3 0
-8 -4 -11 -10z"/>
<path d="M3140 530 c0 -6 7 -10 15 -10 8 0 15 2 15 4 0 2 -7 6 -15 10 -8 3
-15 1 -15 -4z"/>
<path d="M984 409 c-3 -6 -2 -15 3 -20 5 -5 9 -1 9 11 0 23 -2 24 -12 9z"/>
<path d="M830 342 c0 -6 6 -13 13 -15 10 -4 10 -6 0 -6 -7 -1 -13 -6 -13 -12
0 -8 4 -9 13 0 8 6 16 9 19 6 2 -3 5 2 5 10 0 8 -3 13 -5 10 -3 -3 -11 0 -19
6 -8 8 -13 8 -13 1z"/>
<path d="M2455 270 c-3 -5 -1 -10 4 -10 6 0 11 5 11 10 0 6 -2 10 -4 10 -3 0
-8 -4 -11 -10z"/>
<path d="M2680 170 c-8 -5 -24 -7 -35 -5 -11 3 -14 2 -7 -1 6 -3 12 -10 12
-15 0 -6 -4 -7 -10 -4 -5 3 -10 1 -10 -5 0 -6 -4 -8 -10 -5 -6 4 -7 -1 -3 -11
4 -10 2 -15 -3 -11 -6 3 -10 -7 -9 -23 0 -15 3 -26 8 -23 4 2 10 -3 13 -12 5
-11 10 -13 19 -5 10 8 16 7 23 -6 8 -14 13 -16 24 -6 8 6 17 11 19 9 2 -1 3 0
2 2 -1 2 8 12 20 22 21 18 21 20 4 30 -14 8 -16 14 -6 25 9 11 8 14 -7 14 -16
0 -17 2 -4 10 12 8 10 10 -8 10 -13 0 -20 4 -17 10 8 12 4 12 -15 0z m60 -86
c0 -8 -19 -13 -24 -6 -3 5 1 9 9 9 8 0 15 -2 15 -3z"/>
<path d="M2651 34 c0 -11 3 -14 6 -6 3 7 2 16 -1 19 -3 4 -6 -2 -5 -13z"/>
</g>
</svg>
